<?xml version="1.0" encoding="UTF-8" standalone="no"?>
<svg version="1.1" xmlns="http://www.w3.org/2000/svg" xmlns:xlink="http://www.w3.org/1999/xlink"
     preserveAspectRatio="xMidYMid meet" viewBox="0 0 640 640">
    <path
        d="M498.32 337.57C498.32 430.12 423.18 505.25 330.64 505.25C238.09 505.25 162.96 430.12 162.96 337.57C162.96 245.02 238.09 169.89 330.64 169.89C423.18 169.89 498.32 245.02 498.32 337.57Z"
        class="ring"
        fill="#c4dee1"
    />
    <path
        d="M543.73 289.86C566.5 254.52 494.44 230.04 387.33 254.4C175.23 302.62 265.39 273.55 384.54 248.01C444.71 235.12 499.63 234.89 542.6 240.49C584.71 245.98 615.33 257.08 628.14 267.36C654.01 288.12 591.63 384.18 389.5 441.63C187.38 499.08 1.56 499.79 3.27 430.28C4.98 360.78 138.44 305.46 124.26 320.35C110.07 335.25 103.65 346.83 97.82 357.47C54.19 437.1 161.16 426.42 255.24 406.79C288.29 399.89 333.94 388.35 356.71 382.77C404.36 371.09 521.41 324.51 543.73 289.86Z"
        class="sphere"
        fill="#c4dee1"
    />
</svg>